<?xml version="1.0" standalone="no"?>
<!DOCTYPE svg PUBLIC "-//W3C//DTD SVG 20010904//EN"
 "http://www.w3.org/TR/2001/REC-SVG-20010904/DTD/svg10.dtd">
<svg version="1.0" xmlns="http://www.w3.org/2000/svg"
 width="410.000000pt" height="410.000000pt" viewBox="0 0 410.000000 410.000000"
 preserveAspectRatio="xMidYMid meet">
<metadata>
Created by potrace 1.11, written by Peter Selinger 2001-2013
</metadata>
<g transform="translate(0.000000,410.000000) scale(0.100000,-0.100000)"
fill="#000000" stroke="none">
<path d="M1908 4095 c-2 -1 -34 -5 -73 -9 -262 -24 -530 -110 -785 -252 -383
-212 -712 -590 -885 -1014 -135 -335 -177 -789 -104 -1135 51 -244 135 -465
246 -646 l40 -65 -158 -475 c-87 -261 -159 -479 -159 -485 0 -6 220 63 490
153 l490 164 92 -50 c174 -92 440 -183 603 -206 23 -3 51 -7 63 -10 12 -2 59
-7 105 -11 218 -18 377 -8 627 41 95 19 281 83 403 138 255 117 533 333 717
557 239 290 413 710 446 1077 11 121 8 363 -6 459 -18 127 -20 135 -40 219
-62 267 -180 514 -359 755 -77 105 -288 312 -401 396 -274 203 -585 333 -909
380 -25 4 -55 8 -66 11 -23 5 -372 13 -377 8z"/>
</g>
</svg>
